<?xml version="1.0" encoding="UTF-8" standalone="no"?>
<svg xmlns="http://www.w3.org/2000/svg" width="256" height="256" viewBox="0 0 256 256">
    <path fill="#264DE4" d="M255.555 70.766l-23.241 260.36-104.47 28.962-104.182-28.922L.445 70.766h255.11z"/>
    <path fill="#2965F1" d="M128 337.95l84.417-23.403 19.86-222.49H128V337.95z"/>
    <path fill="#EBEBEB" d="M128 155.932H35.347l-2.344 26.206h94.997v-26.206zM128 208.036H52.504l-2.344 26.206h77.84v-26.206zM128 259.77l-40.182-10.92-.76-8.583h-26.206l1.519 16.927 65.63 17.823V259.77z"/>
    <path fill="#FFF" d="M128 155.932v26.206h89.336l-1.664 18.621H128v26.206h63.912l-2.344 26.206h-61.568v15.247l65.63-17.823 8.583-96.023H128z"/>
</svg>
