<?xml version="1.0" encoding="UTF-8"?>
<svg xmlns="http://www.w3.org/2000/svg" xmlns:xlink="http://www.w3.org/1999/xlink" viewBox="0 0 50 50" width="50px" height="50px">
<g id="surface1">
<path style=" stroke:none;fill-rule:nonzero;fill:rgb(100%,100%,100%);fill-opacity:1;" d="M 47.988281 21.878906 C 47.230469 21.179688 44.628906 20.941406 42.5 21.148438 C 42.199219 18.761719 40.6875 17.039062 38.351562 15.871094 L 37.28125 15.402344 L 36.808594 16.46875 C 36.0625 18.171875 35.722656 20.511719 35.972656 22.570312 C 36.046875 23.191406 36.207031 24.011719 36.613281 24.707031 C 35.863281 25.09375 34.5 25.601562 32.574219 25.601562 L 2.65625 25.601562 L 2.613281 25.882812 C 2.402344 27.039062 2.316406 29.652344 2.503906 31.726562 C 2.730469 34.316406 3.429688 36.644531 4.597656 38.558594 L 5.070312 39.347656 L 5.089844 39.367188 C 7.914062 43.605469 12.707031 45.917969 18.847656 45.917969 C 30.730469 45.917969 40.101562 40.6875 44.367188 30.207031 C 45.714844 30.230469 48.558594 30.230469 49.84375 27.691406 C 49.890625 27.597656 49.980469 27.359375 50.140625 26.929688 L 50.28125 26.570312 Z M 28.710938 19.886719 L 24.617188 19.886719 L 24.617188 23.980469 L 28.710938 23.980469 Z M 28.710938 14.75 L 24.617188 14.75 L 24.617188 18.839844 L 28.710938 18.839844 Z M 28.710938 9.609375 L 24.617188 9.609375 L 24.617188 13.703125 L 28.710938 13.703125 Z M 33.617188 19.886719 L 29.523438 19.886719 L 29.523438 23.980469 L 33.617188 23.980469 Z M 18.992188 19.886719 L 14.894531 19.886719 L 14.894531 23.980469 L 18.992188 23.980469 Z M 23.898438 19.886719 L 19.804688 19.886719 L 19.804688 23.980469 L 23.898438 23.980469 Z M 14.085938 19.886719 L 9.992188 19.886719 L 9.992188 23.980469 L 14.085938 23.980469 Z M 18.992188 14.75 L 14.894531 14.75 L 14.894531 18.839844 L 18.992188 18.839844 Z M 23.898438 14.75 L 19.804688 14.75 L 19.804688 18.839844 L 23.898438 18.839844 Z M 23.898438 14.75 "/>
</g>
</svg>
