<?xml version="1.0" encoding="UTF-8"?>
<svg width="50px" height="50px" viewBox="0 0 50 50" version="1.1" xmlns="http://www.w3.org/2000/svg">
    <path d="M45.2,28.5L21.5,4.8c-1.4-1.4-3.6-1.4-5,0l-4.9,4.9l6.3,6.3c1.5-0.5,3.2-0.2,4.4,1c1.2,1.2,1.5,3,0.9,4.5l6.1,6.1 c1.5-0.6,3.3-0.3,4.5,0.9c1.7,1.7,1.7,4.4,0,6.1c-1.7,1.7-4.4,1.7-6.1,0c-1.3-1.3-1.6-3.2-0.9-4.8l-5.7-5.7v15c0.4,0.2,0.8,0.5,1.1,0.8 c1.7,1.7,1.7,4.4,0,6.1c-1.7,1.7-4.4,1.7-6.1,0c-1.7-1.7-1.7-4.4,0-6.1c0.4-0.4,0.9-0.7,1.4-0.9V23.5c-0.5-0.2-1-0.5-1.4-0.9 c-1.3-1.3-1.6-3.2-0.9-4.8L8.8,11.3L1.2,18.9c-1.4,1.4-1.4,3.6,0,5l23.7,23.7c1.4,1.4,3.6,1.4,5,0l23.5-23.5 C46.6,32.1,46.6,29.9,45.2,28.5z" fill="#FFFFFF"/>
</svg>
