<?xml version="1.0" encoding="UTF-8"?>
<svg xmlns="http://www.w3.org/2000/svg" viewBox="0 0 128 128">
  <path fill="#00618A" d="M116.948 97.807c-6.863-.187-12.104.452-16.585 2.341-1.273.537-3.305.552-3.513 2.147.7.733.809 1.829 1.365 2.731 1.07 1.73 2.876 4.052 4.488 5.268 1.762 1.33 3.577 2.751 5.465 3.902 3.358 2.047 7.107 3.217 10.34 5.268 1.906 1.21 3.799 2.733 5.658 4.097.92.675 1.537 1.724 2.732 2.147v-.194c-.628-.8-.79-1.898-1.366-2.733l-2.537-2.537c-2.48-3.292-5.629-6.184-8.976-8.585-2.669-1.916-8.642-4.504-9.755-7.609l-.195-.195c1.892-.214 4.107-.898 5.854-1.367 2.934-.786 5.556-.583 8.585-1.365l4.097-1.171v-.78c-1.531-1.571-2.623-3.651-4.292-5.073-4.37-3.72-9.138-7.437-14.048-10.537-2.724-1.718-6.089-2.835-8.976-4.292-.971-.491-2.677-.746-3.318-1.562-1.517-1.932-2.342-4.382-3.511-6.633-2.449-4.717-4.854-9.868-7.024-14.831-1.48-3.384-2.447-6.72-4.293-9.756-8.86-14.567-18.396-23.358-33.169-32-3.144-1.838-6.929-2.563-10.929-3.513-2.145-.129-4.292-.26-6.438-.391-1.311-.546-2.673-2.149-3.902-2.927C17.811 4.565 3.434-2.434 1.268 7.449 0 13.681 5.13 19.815 6.83 23.217c1.175 2.351 2.685 5.002 3.512 7.609.533 1.649.378 3.322 1.171 4.879 1.132 2.239 2.178 4.791 3.709 6.829 1.609 2.14 3.304 4.283 5.073 6.244 1.1 1.214 2.938 1.758 3.317 3.903-.942 1.326-.869 3.336-1.366 5.268-2.127 6.673-1.31 14.959 1.755 19.901 1.027 1.649 3.456 5.2 6.828 3.903 2.92-1.121 2.269-4.873 3.122-8.195.195-.76.127-1.239.391-1.755v.195l2.341 4.683c1.743 2.813 4.842 5.767 7.414 7.804 1.37 1.092 2.457 2.98 4.195 3.513v-.195h-.195c-.344-.522-.899-.807-1.366-1.171-.948-.744-2-1.741-2.731-2.635-2.17-2.647-4.096-5.537-5.853-8.391-1.064-1.718-1.997-3.583-2.927-5.268-.401-.731-.296-1.849-1.171-2.147-1.089 1.699-2.682 3.085-3.511 5.073-1.334 3.208-1.49 7.112-2.146 11.221-.308.023-.157.123-.391.195-2.436-.579-3.291-3.085-4.195-5.268-2.291-5.498-2.714-14.322-.976-20.683.417-1.544 2.264-6.387 1.561-7.804-.375-1.404-1.597-2.219-2.341-3.317-1.027-1.528-2.142-3.475-2.927-5.171-1.94-4.2-2.879-8.886-4.976-13.075-1-.198-1.124-1.657-1.755-2.341-1.497-1.645-3.129-3.128-4.683-4.683-1.656-1.654-3.571-2.546-4.879-4.292-.475-.635-1.129-1.685-1.366-2.536-1.275-1.928.324-4.679 1.366-5.854 1.302-1.478 5.229-2.366 7.219-1.755 4.092 1.258 7.511 2.413 10.929 4.097 1.759.867 3.482 2.471 5.659 2.927h2.536c3.771.836 8.032.256 11.611 1.366 6.227 1.934 11.809 4.768 16.779 7.804 15.271 9.326 27.811 22.612 36.29 38.437 1.391 2.59 2.025 5.063 3.316 7.804 2.581 5.472 5.809 11.066 8.39 16.39 2.585 5.324 5.065 10.716 8.781 15.024 1.844 2.131 9.285 3.275 12.68 4.39 2.497.816 6.342 1.603 8.586 2.731 4.241 2.131 8.374 4.585 12.292 6.829 1.96 1.121 7.989 4.407 8.391 6.829-.096 2.243-4.227 3.301-5.854 4.39-2.641 1.604-5.312 2.314-8.196 3.902-.213.801-1.986 1.276-2.927 1.951z"/>
</svg>
