<?xml version="1.0" encoding="UTF-8"?>
<svg xmlns="http://www.w3.org/2000/svg" viewBox="0 0 128 128">
  <path fill="#6181B6" d="M64 33.039C30.26 33.039 2.906 46.901 2.906 64S30.26 94.961 64 94.961 125.094 81.099 125.094 64 97.74 33.039 64 33.039zM48.103 70.032c-1.458 1.364-3.077 1.927-4.86 2.507-1.783.581-4.052.461-6.811.461h-6.253l-1.733 10h-7.301l6.515-34h14.04c4.224 0 7.305 1.215 9.242 3.432 1.937 2.217 2.519 5.364 1.747 9.337-.319 1.637-.856 3.159-1.614 4.515a15.118 15.118 0 01-2.972 3.748zM69.412 73l6.514-34h7.302l-1.734 10h6.253c4.224 0 7.305 1.215 9.241 3.432 1.937 2.217 2.519 5.364 1.748 9.337-.319 1.637-.856 3.159-1.614 4.515a15.118 15.118 0 01-2.972 3.748c-1.458 1.364-3.077 1.927-4.86 2.507-1.783.581-4.052.461-6.811.461h-6.253l-1.733 10h-7.302z"/>
  <path fill="#FFF" d="M46.193 43h7.302l-2.517 13h6.253c3.796 0 6.374.685 7.734 2.056 1.36 1.371 1.7 3.58 1.015 6.629-.316 1.457-.801 2.771-1.456 3.942a12.184 12.184 0 01-2.488 3.077c-1.197 1.122-2.546 1.772-4.048 1.951-1.502.179-3.329.269-5.482.269H41.591L46.193 43zm-4.425 23h6.253c2.244 0 3.977-.174 5.199-.521 1.222-.348 2.109-.962 2.661-1.843.552-.881.936-1.937 1.152-3.168.265-1.637.044-2.885-.665-3.744-.709-.859-2.027-1.289-3.954-1.289h-6.253l-2.517 13h-1.876zm27.644 7l6.515-34h7.302l-1.734 10h6.253c4.224 0 7.305 1.215 9.241 3.432 1.937 2.217 2.519 5.364 1.748 9.337-.319 1.637-.856 3.159-1.614 4.515a15.118 15.118 0 01-2.972 3.748c-1.458 1.364-3.077 1.927-4.86 2.507-1.783.581-4.052.461-6.811.461h-6.253l-1.733 10h-7.302zm4.425-23l-2.517 13h6.253c2.244 0 3.977-.174 5.199-.521 1.222-.348 2.109-.962 2.661-1.843.552-.881.936-1.937 1.152-3.168.265-1.637.044-2.885-.665-3.744-.709-.859-2.027-1.289-3.954-1.289h-6.253l-1.876-2.435z"/>
</svg>
